<svg width="16" height="16" fill="none" xmlns="http://www.w3.org/2000/svg"><path fill-rule="evenodd" clip-rule="evenodd" d="M1.885.51a1.745 1.745 0 0 1 2.61.163L6.29 2.98c.33.423.445.974.315 1.494l-.547 2.19a.678.678 0 0 0 .178.644l2.457 2.457a.678.678 0 0 0 .644.178l2.19-.547a1.745 1.745 0 0 1 1.493.315l2.306 1.794c.829.645.905 1.87.163 2.61l-1.034 1.035c-.74.74-1.846 1.065-2.877.702a18.633 18.633 0 0 1-7.01-4.42 18.635 18.635 0 0 1-4.42-7.01c-.362-1.03-.037-2.137.703-2.877L1.885.51z" fill="#008139"/></svg>